<svg width="323" height="100" viewBox="0 0 323 100" fill="none" xmlns="http://www.w3.org/2000/svg">
<path d="M0 0H321.709V77.679H0V0Z" fill="#1B53C3"/>
<path d="M217.247 0H321.709V77.679H217.247V0Z" fill="#FF0000"/>
<path d="M44.3553 47.5873C44.3553 48.8823 44.1852 50.0818 43.8448 51.1857C43.5258 52.2684 43.0685 53.245 42.4729 54.1154C41.8774 54.9858 41.1542 55.7501 40.3034 56.4082C39.4739 57.0663 38.5274 57.6183 37.4639 58.0641C36.4217 58.5099 35.2944 58.8496 34.082 59.0831C32.8909 59.2954 31.519 59.4016 29.9663 59.4016H19.1826C18.6934 59.4016 18.2254 59.2423 17.7788 58.9239C17.3534 58.5842 17.1407 58.0004 17.1407 57.1725V20.4242C17.1407 19.5962 17.3534 19.023 17.7788 18.7046C18.2254 18.3649 18.6934 18.1951 19.1826 18.1951H28.5625C31.0298 18.1951 33.0504 18.4286 34.6244 18.8956C36.1984 19.3627 37.5065 20.042 38.5487 20.9337C39.6122 21.8253 40.4098 22.9186 40.9415 24.2136C41.4733 25.5086 41.7391 26.9735 41.7391 28.6081C41.7391 29.5847 41.6222 30.5188 41.3882 31.4104C41.1542 32.3021 40.8033 33.13 40.3353 33.8943C39.8887 34.6373 39.3144 35.3061 38.6125 35.9005C37.9319 36.4949 37.1449 36.9832 36.2515 37.3653C37.3788 37.5776 38.4317 37.9704 39.4101 38.5436C40.3885 39.0955 41.2393 39.8067 41.9625 40.6771C42.7069 41.5475 43.2918 42.5666 43.7172 43.7342C44.1426 44.9018 44.3553 46.1862 44.3553 47.5873ZM36.092 29.1495C36.092 28.1517 35.9538 27.2495 35.6773 26.4427C35.4008 25.636 34.9647 24.9567 34.3692 24.4047C33.7736 23.8315 32.9973 23.3963 32.0401 23.0991C31.083 22.8019 29.8175 22.6533 28.2435 22.6533H22.5645V35.996H28.8178C30.2428 35.996 31.3914 35.8156 32.2635 35.4547C33.1355 35.0725 33.8587 34.5736 34.433 33.958C35.0073 33.3211 35.422 32.5887 35.6773 31.7607C35.9538 30.9115 36.092 30.0411 36.092 29.1495ZM38.5806 47.9058C38.5806 46.6745 38.3785 45.5918 37.9744 44.6577C37.5915 43.7236 37.0173 42.9381 36.2515 42.3012C35.5071 41.6643 34.5606 41.1866 33.412 40.8682C32.2847 40.5285 30.8597 40.3587 29.1368 40.3587H22.5645V54.8797H30.5406C31.7955 54.8797 32.8909 54.7311 33.8268 54.4339C34.7627 54.1366 35.5815 53.7014 36.2834 53.1282C37.0066 52.5338 37.5703 51.8014 37.9744 50.931C38.3785 50.0606 38.5806 49.0522 38.5806 47.9058Z" fill="white"/>
<path d="M82.9599 57.4591C83.13 57.9261 83.2151 58.3082 83.2151 58.6055C83.2364 58.8814 83.1619 59.0937 82.9918 59.2423C82.8216 59.391 82.5345 59.4865 82.1303 59.5289C81.7475 59.5714 81.2264 59.5926 80.567 59.5926C79.9077 59.5926 79.3759 59.5714 78.9718 59.5289C78.5889 59.5077 78.2912 59.4653 78.0785 59.4016C77.887 59.3167 77.7382 59.2105 77.6318 59.0831C77.5467 58.9557 77.4616 58.7965 77.3766 58.6055L73.8352 48.5745H56.6705L53.2886 58.4781C53.2248 58.6692 53.1397 58.839 53.0334 58.9876C52.927 59.115 52.7675 59.2317 52.5548 59.3379C52.3634 59.4228 52.0762 59.4865 51.6934 59.5289C51.3318 59.5714 50.8532 59.5926 50.2577 59.5926C49.6408 59.5926 49.1304 59.5608 48.7262 59.4971C48.3434 59.4546 48.0669 59.3591 47.8967 59.2105C47.7478 59.0619 47.6734 58.8496 47.6734 58.5736C47.6947 58.2764 47.7904 57.8943 47.9605 57.4272L61.8071 19.1504C61.8922 18.9169 61.9986 18.7258 62.1262 18.5772C62.2751 18.4286 62.4771 18.3118 62.7324 18.2269C63.0089 18.142 63.3492 18.0889 63.7533 18.0677C64.1787 18.0252 64.7104 18.004 65.3485 18.004C66.0292 18.004 66.5928 18.0252 67.0395 18.0677C67.4861 18.0889 67.8477 18.142 68.1242 18.2269C68.4007 18.3118 68.6134 18.4392 68.7623 18.609C68.9112 18.7576 69.0282 18.9487 69.1133 19.1822L82.9599 57.4591ZM65.189 23.6723H65.1571L58.0424 44.2118H72.3995L65.189 23.6723Z" fill="white"/>
<path d="M117.417 58.5736C117.417 58.7435 117.385 58.8921 117.321 59.0194C117.257 59.1468 117.119 59.253 116.906 59.3379C116.694 59.4228 116.396 59.4865 116.013 59.5289C115.63 59.5714 115.12 59.5926 114.482 59.5926C113.929 59.5926 113.471 59.5714 113.11 59.5289C112.769 59.4865 112.493 59.4228 112.28 59.3379C112.067 59.2317 111.897 59.0937 111.77 58.9239C111.663 58.7541 111.568 58.5418 111.483 58.287L107.686 48.5745C107.239 47.4706 106.771 46.4622 106.282 45.5493C105.814 44.6152 105.251 43.8191 104.591 43.161C103.932 42.4816 103.155 41.9615 102.262 41.6006C101.369 41.2185 100.295 41.0274 99.0398 41.0274H95.3708V58.5736C95.3708 58.7435 95.3176 58.8921 95.2112 59.0194C95.1262 59.1468 94.9773 59.253 94.7646 59.3379C94.5731 59.4016 94.2966 59.4546 93.9351 59.4971C93.5947 59.5608 93.1587 59.5926 92.627 59.5926C92.0952 59.5926 91.6486 59.5608 91.287 59.4971C90.9467 59.4546 90.6701 59.4016 90.4575 59.3379C90.2448 59.253 90.0959 59.1468 90.0108 59.0194C89.9257 58.8921 89.8832 58.7435 89.8832 58.5736V20.4242C89.8832 19.5962 90.0959 19.023 90.5213 18.7046C90.9679 18.3649 91.4359 18.1951 91.9251 18.1951H100.699C101.741 18.1951 102.602 18.2269 103.283 18.2906C103.985 18.333 104.612 18.3861 105.165 18.4498C106.761 18.7258 108.164 19.161 109.377 19.7554C110.611 20.3499 111.642 21.1035 112.472 22.0164C113.301 22.9292 113.918 23.9801 114.322 25.169C114.747 26.3366 114.96 27.6316 114.96 29.054C114.96 30.4339 114.769 31.6758 114.386 32.7797C114.024 33.8624 113.493 34.8284 112.791 35.6776C112.089 36.5055 111.249 37.2273 110.27 37.843C109.292 38.4586 108.196 38.9788 106.984 39.4034C107.665 39.7006 108.281 40.0827 108.834 40.5497C109.388 40.9956 109.898 41.5369 110.366 42.1738C110.855 42.8107 111.312 43.5431 111.738 44.3711C112.163 45.199 112.589 46.1331 113.014 47.1734L116.715 56.249C117.013 57.0132 117.204 57.5546 117.289 57.873C117.374 58.1703 117.417 58.4038 117.417 58.5736ZM109.154 29.6272C109.154 28.0137 108.792 26.655 108.069 25.5511C107.346 24.4259 106.133 23.6192 104.432 23.1309C103.9 22.9823 103.294 22.8762 102.613 22.8125C101.954 22.7488 101.082 22.7169 99.9969 22.7169H95.3708V36.6011H100.731C102.177 36.6011 103.421 36.4312 104.464 36.0915C105.527 35.7306 106.41 35.2424 107.112 34.6267C107.814 33.9898 108.324 33.2468 108.643 32.3976C108.983 31.5484 109.154 30.6249 109.154 29.6272Z" fill="white"/>
<path d="M152.895 58.5736C152.895 58.7435 152.863 58.8921 152.799 59.0194C152.735 59.1468 152.597 59.253 152.384 59.3379C152.172 59.4228 151.874 59.4865 151.491 59.5289C151.108 59.5714 150.598 59.5926 149.96 59.5926C149.407 59.5926 148.949 59.5714 148.588 59.5289C148.247 59.4865 147.971 59.4228 147.758 59.3379C147.545 59.2317 147.375 59.0937 147.248 58.9239C147.141 58.7541 147.046 58.5418 146.96 58.287L143.164 48.5745C142.717 47.4706 142.249 46.4622 141.76 45.5493C141.292 44.6152 140.728 43.8191 140.069 43.161C139.41 42.4816 138.633 41.9615 137.74 41.6006C136.847 41.2185 135.773 41.0274 134.518 41.0274H130.849V58.5736C130.849 58.7435 130.795 58.8921 130.689 59.0194C130.604 59.1468 130.455 59.253 130.242 59.3379C130.051 59.4016 129.775 59.4546 129.413 59.4971C129.073 59.5608 128.637 59.5926 128.105 59.5926C127.573 59.5926 127.126 59.5608 126.765 59.4971C126.425 59.4546 126.148 59.4016 125.935 59.3379C125.723 59.253 125.574 59.1468 125.489 59.0194C125.404 58.8921 125.361 58.7435 125.361 58.5736V20.4242C125.361 19.5962 125.574 19.023 125.999 18.7046C126.446 18.3649 126.914 18.1951 127.403 18.1951H136.177C137.219 18.1951 138.08 18.2269 138.761 18.2906C139.463 18.333 140.09 18.3861 140.643 18.4498C142.239 18.7258 143.642 19.161 144.855 19.7554C146.088 20.3499 147.12 21.1035 147.95 22.0164C148.779 22.9292 149.396 23.9801 149.8 25.169C150.225 26.3366 150.438 27.6316 150.438 29.054C150.438 30.4339 150.247 31.6758 149.864 32.7797C149.502 33.8624 148.97 34.8284 148.269 35.6776C147.567 36.5055 146.727 37.2273 145.748 37.843C144.77 38.4586 143.674 38.9788 142.462 39.4034C143.143 39.7006 143.759 40.0827 144.312 40.5497C144.865 40.9956 145.376 41.5369 145.844 42.1738C146.333 42.8107 146.79 43.5431 147.216 44.3711C147.641 45.199 148.067 46.1331 148.492 47.1734L152.193 56.249C152.491 57.0132 152.682 57.5546 152.767 57.873C152.852 58.1703 152.895 58.4038 152.895 58.5736ZM144.631 29.6272C144.631 28.0137 144.27 26.655 143.547 25.5511C142.824 24.4259 141.611 23.6192 139.91 23.1309C139.378 22.9823 138.772 22.8762 138.091 22.8125C137.432 22.7488 136.56 22.7169 135.475 22.7169H130.849V36.6011H136.209C137.655 36.6011 138.899 36.4312 139.941 36.0915C141.005 35.7306 141.888 35.2424 142.59 34.6267C143.291 33.9898 143.802 33.2468 144.121 32.3976C144.461 31.5484 144.631 30.6249 144.631 29.6272Z" fill="white"/>
<path d="M183.81 57.1406C183.81 57.5228 183.789 57.8624 183.746 58.1596C183.704 58.4356 183.63 58.6692 183.523 58.8602C183.417 59.0513 183.289 59.1893 183.14 59.2742C183.013 59.3591 182.864 59.4016 182.694 59.4016H162.881C162.392 59.4016 161.924 59.2423 161.477 58.9239C161.052 58.5842 160.839 58.0004 160.839 57.1725V20.4242C160.839 19.5962 161.052 19.023 161.477 18.7046C161.924 18.3649 162.392 18.1951 162.881 18.1951H182.47C182.64 18.1951 182.789 18.2375 182.917 18.3224C183.066 18.4074 183.183 18.5453 183.268 18.7364C183.353 18.9275 183.417 19.1716 183.459 19.4688C183.523 19.7448 183.555 20.0951 183.555 20.5197C183.555 20.9018 183.523 21.2415 183.459 21.5387C183.417 21.8147 183.353 22.0482 183.268 22.2393C183.183 22.4091 183.066 22.5365 182.917 22.6214C182.789 22.7063 182.64 22.7488 182.47 22.7488H166.327V35.6776H180.173C180.343 35.6776 180.492 35.7306 180.62 35.8368C180.769 35.9217 180.886 36.0491 180.971 36.2189C181.077 36.3888 181.152 36.6223 181.194 36.9195C181.237 37.2167 181.258 37.567 181.258 37.9704C181.258 38.3525 181.237 38.6815 181.194 38.9575C181.152 39.2335 181.077 39.4564 180.971 39.6263C180.886 39.7961 180.769 39.9235 180.62 40.0084C180.492 40.0721 180.343 40.1039 180.173 40.1039H166.327V54.8478H182.694C182.864 54.8478 183.013 54.8903 183.14 54.9752C183.289 55.0601 183.417 55.1981 183.523 55.3892C183.63 55.559 183.704 55.7925 183.746 56.0898C183.789 56.3657 183.81 56.716 183.81 57.1406Z" fill="white"/>
<path d="M214.152 57.0132C214.152 57.4378 214.13 57.7987 214.088 58.096C214.045 58.3719 213.971 58.6161 213.864 58.8284C213.779 59.0194 213.662 59.168 213.513 59.2742C213.386 59.3591 213.226 59.4016 213.035 59.4016H194.785C194.296 59.4016 193.828 59.2423 193.382 58.9239C192.956 58.5842 192.744 58.0004 192.744 57.1725V19.023C192.744 18.8532 192.786 18.7046 192.871 18.5772C192.956 18.4498 193.105 18.3543 193.318 18.2906C193.531 18.2057 193.818 18.142 194.179 18.0995C194.541 18.0358 194.977 18.004 195.487 18.004C196.019 18.004 196.455 18.0358 196.795 18.0995C197.157 18.142 197.444 18.2057 197.657 18.2906C197.87 18.3543 198.018 18.4498 198.104 18.5772C198.189 18.7046 198.231 18.8532 198.231 19.023V54.6568H213.035C213.226 54.6568 213.386 54.7098 213.513 54.816C213.662 54.9009 213.779 55.0389 213.864 55.23C213.971 55.3998 214.045 55.6333 214.088 55.9305C214.13 56.2278 214.152 56.5887 214.152 57.0132Z" fill="white"/>
<path d="M243.217 57.1406C243.217 57.5228 243.195 57.8624 243.153 58.1596C243.11 58.4356 243.036 58.6692 242.93 58.8602C242.823 59.0513 242.696 59.1893 242.547 59.2742C242.419 59.3591 242.27 59.4016 242.1 59.4016H222.287C221.798 59.4016 221.33 59.2423 220.883 58.9239C220.458 58.5842 220.245 58.0004 220.245 57.1725V20.4242C220.245 19.5962 220.458 19.023 220.883 18.7046C221.33 18.3649 221.798 18.1951 222.287 18.1951H241.877C242.047 18.1951 242.196 18.2375 242.323 18.3224C242.472 18.4074 242.589 18.5453 242.674 18.7364C242.759 18.9275 242.823 19.1716 242.866 19.4688C242.93 19.7448 242.961 20.0951 242.961 20.5197C242.961 20.9018 242.93 21.2415 242.866 21.5387C242.823 21.8147 242.759 22.0482 242.674 22.2393C242.589 22.4091 242.472 22.5365 242.323 22.6214C242.196 22.7063 242.047 22.7488 241.877 22.7488H225.733V35.6776H239.58C239.75 35.6776 239.899 35.7306 240.026 35.8368C240.175 35.9217 240.292 36.0491 240.377 36.2189C240.483 36.3888 240.558 36.6223 240.6 36.9195C240.643 37.2167 240.664 37.567 240.664 37.9704C240.664 38.3525 240.643 38.6815 240.6 38.9575C240.558 39.2335 240.483 39.4564 240.377 39.6263C240.292 39.7961 240.175 39.9235 240.026 40.0084C239.899 40.0721 239.75 40.1039 239.58 40.1039H225.733V54.8478H242.1C242.27 54.8478 242.419 54.8903 242.547 54.9752C242.696 55.0601 242.823 55.1981 242.93 55.3892C243.036 55.559 243.11 55.7925 243.153 56.0898C243.195 56.3657 243.217 56.716 243.217 57.1406Z" fill="white"/>
<path d="M265.327 43.3839V58.5736C265.327 58.7435 265.284 58.8921 265.199 59.0194C265.114 59.1468 264.965 59.253 264.752 59.3379C264.54 59.4016 264.252 59.4546 263.891 59.4971C263.529 59.5608 263.093 59.5926 262.583 59.5926C262.051 59.5926 261.604 59.5608 261.243 59.4971C260.902 59.4546 260.615 59.4016 260.381 59.3379C260.169 59.253 260.02 59.1468 259.935 59.0194C259.85 58.8921 259.807 58.7435 259.807 58.5736V43.3839L248.13 20.1376C247.896 19.6493 247.747 19.2671 247.683 18.9912C247.641 18.7152 247.694 18.5029 247.843 18.3543C248.013 18.2057 248.3 18.1101 248.704 18.0677C249.13 18.0252 249.693 18.004 250.395 18.004C251.033 18.004 251.544 18.0252 251.927 18.0677C252.331 18.1101 252.65 18.1738 252.884 18.2587C253.118 18.3224 253.288 18.4286 253.394 18.5772C253.522 18.7046 253.639 18.8744 253.745 19.0867L259.456 30.9328C259.988 32.0579 260.52 33.2362 261.051 34.4675C261.583 35.6988 262.125 36.9407 262.678 38.1933H262.742C263.231 36.9832 263.731 35.7837 264.242 34.5949C264.774 33.3848 265.305 32.1959 265.837 31.0283L271.58 19.1185C271.644 18.9062 271.729 18.7258 271.835 18.5772C271.963 18.4286 272.122 18.3224 272.314 18.2587C272.526 18.1738 272.813 18.1101 273.175 18.0677C273.537 18.0252 273.994 18.004 274.547 18.004C275.313 18.004 275.908 18.0358 276.334 18.0995C276.78 18.142 277.089 18.2375 277.259 18.3861C277.429 18.5347 277.482 18.747 277.418 19.023C277.376 19.299 277.238 19.6705 277.004 20.1376L265.327 43.3839Z" fill="white"/>
<path d="M306.962 57.1406C306.962 57.5228 306.941 57.8624 306.898 58.1596C306.856 58.4356 306.781 58.6692 306.675 58.8602C306.569 59.0513 306.441 59.1893 306.292 59.2742C306.164 59.3591 306.016 59.4016 305.845 59.4016H286.033C285.543 59.4016 285.075 59.2423 284.629 58.9239C284.203 58.5842 283.991 58.0004 283.991 57.1725V20.4242C283.991 19.5962 284.203 19.023 284.629 18.7046C285.075 18.3649 285.543 18.1951 286.033 18.1951H305.622C305.792 18.1951 305.941 18.2375 306.069 18.3224C306.218 18.4074 306.335 18.5453 306.42 18.7364C306.505 18.9275 306.569 19.1716 306.611 19.4688C306.675 19.7448 306.707 20.0951 306.707 20.5197C306.707 20.9018 306.675 21.2415 306.611 21.5387C306.569 21.8147 306.505 22.0482 306.42 22.2393C306.335 22.4091 306.218 22.5365 306.069 22.6214C305.941 22.7063 305.792 22.7488 305.622 22.7488H289.478V35.6776H303.325C303.495 35.6776 303.644 35.7306 303.772 35.8368C303.92 35.9217 304.037 36.0491 304.123 36.2189C304.229 36.3888 304.303 36.6223 304.346 36.9195C304.388 37.2167 304.41 37.567 304.41 37.9704C304.41 38.3525 304.388 38.6815 304.346 38.9575C304.303 39.2335 304.229 39.4564 304.123 39.6263C304.037 39.7961 303.92 39.9235 303.772 40.0084C303.644 40.0721 303.495 40.1039 303.325 40.1039H289.478V54.8478H305.845C306.016 54.8478 306.164 54.8903 306.292 54.9752C306.441 55.0601 306.569 55.1981 306.675 55.3892C306.781 55.559 306.856 55.7925 306.898 56.0898C306.941 56.3657 306.962 56.716 306.962 57.1406Z" fill="white"/>
<path d="M5.76173 83.673V96.3718H4.10147V83.673H5.76173ZM9.8512 83.673V85.051H0.0207278V83.673H9.8512Z" fill="white"/>
<path d="M21.7006 82.9753V96.3718H20.084V82.9753H21.7006ZM21.3161 91.2958L20.6432 91.2696C20.6491 90.6242 20.7452 90.0282 20.9316 89.4816C21.118 88.9293 21.3802 88.4496 21.718 88.0426C22.0559 87.6356 22.4579 87.3216 22.9239 87.1006C23.3958 86.8739 23.9171 86.7605 24.488 86.7605C24.9541 86.7605 25.3735 86.8244 25.7463 86.9524C26.1192 87.0745 26.4367 87.2722 26.6988 87.5454C26.9668 87.8187 27.1707 88.1734 27.3105 88.6095C27.4503 89.0397 27.5202 89.566 27.5202 90.1881V96.3718H25.8949V90.1707C25.8949 89.6764 25.8221 89.281 25.6764 88.9845C25.5308 88.6822 25.3182 88.4641 25.0385 88.3304C24.7589 88.1908 24.4152 88.1211 24.0074 88.1211C23.6055 88.1211 23.2385 88.2054 22.9064 88.374C22.5802 88.5426 22.2977 88.7752 22.0588 89.0717C21.8258 89.3683 21.6423 89.7084 21.5083 90.0922C21.3802 90.4701 21.3161 90.8713 21.3161 91.2958Z" fill="white"/>
<path d="M42.4541 96.5462C41.7959 96.5462 41.1987 96.4357 40.6628 96.2148C40.1327 95.988 39.6754 95.6711 39.2909 95.2641C38.9122 94.8571 38.621 94.3745 38.4171 93.8163C38.2132 93.2581 38.1112 92.6476 38.1112 91.9848V91.6185C38.1112 90.851 38.2248 90.1677 38.452 89.5689C38.6792 88.9642 38.988 88.4525 39.3783 88.0338C39.7686 87.6152 40.2113 87.2983 40.7065 87.0832C41.2017 86.868 41.7143 86.7605 42.2444 86.7605C42.9202 86.7605 43.5027 86.8768 43.9921 87.1093C44.4872 87.3419 44.8921 87.6675 45.2067 88.0862C45.5212 88.499 45.7543 88.9874 45.9057 89.5514C46.0572 90.1096 46.1329 90.7201 46.1329 91.383V92.1069H39.0724V90.7899H44.5163V90.6678C44.493 90.2492 44.4057 89.8421 44.2542 89.4468C44.1086 89.0514 43.8755 88.7258 43.5551 88.4699C43.2347 88.2141 42.7978 88.0862 42.2444 88.0862C41.8774 88.0862 41.5395 88.1647 41.2308 88.3217C40.922 88.4728 40.657 88.6996 40.4356 89.002C40.2142 89.3043 40.0424 89.6735 39.9201 90.1096C39.7977 90.5457 39.7365 91.0486 39.7365 91.6185V91.9848C39.7365 92.4325 39.7977 92.854 39.9201 93.2494C40.0482 93.639 40.2317 93.982 40.4706 94.2786C40.7152 94.5751 41.0094 94.8077 41.3531 94.9763C41.7026 95.1449 42.0988 95.2292 42.5415 95.2292C43.1124 95.2292 43.5959 95.1129 43.9921 94.8804C44.3882 94.6478 44.7348 94.3367 45.0319 93.9472L46.0106 94.7234C45.8067 95.0315 45.5475 95.3252 45.2329 95.6043C44.9183 95.8834 44.5309 96.1101 44.0707 96.2846C43.6163 96.459 43.0775 96.5462 42.4541 96.5462Z" fill="white"/>
<path d="M75.1444 93.8687C75.1444 93.6361 75.092 93.4209 74.9872 93.2233C74.8881 93.0197 74.6813 92.8366 74.3667 92.6738C74.058 92.5052 73.5919 92.3598 72.9686 92.2377C72.4443 92.1272 71.9696 91.9964 71.5443 91.8452C71.1249 91.694 70.7666 91.5109 70.4695 91.2958C70.1782 91.0806 69.9539 90.8277 69.7967 90.537C69.6394 90.2462 69.5607 89.9061 69.5607 89.5165C69.5607 89.1444 69.6423 88.7926 69.8054 88.4612C69.9743 88.1298 70.2103 87.8362 70.5132 87.5803C70.8219 87.3245 71.1919 87.1239 71.6229 86.9785C72.054 86.8332 72.5346 86.7605 73.0647 86.7605C73.8221 86.7605 74.4687 86.8942 75.0046 87.1617C75.5406 87.4291 75.9513 87.7867 76.2367 88.2344C76.5222 88.6763 76.6649 89.1677 76.6649 89.7084H75.0483C75.0483 89.4468 74.9697 89.1938 74.8124 88.9496C74.6609 88.6996 74.4366 88.4932 74.1395 88.3304C73.8483 88.1676 73.49 88.0862 73.0647 88.0862C72.6162 88.0862 72.2521 88.156 71.9725 88.2955C71.6987 88.4292 71.4977 88.6008 71.3695 88.8101C71.2472 89.0194 71.186 89.2403 71.186 89.4729C71.186 89.6474 71.2152 89.8043 71.2734 89.9439C71.3375 90.0776 71.4482 90.2026 71.6055 90.3189C71.7628 90.4294 71.9841 90.5341 72.2696 90.6329C72.555 90.7318 72.9191 90.8306 73.3618 90.9294C74.1366 91.1039 74.7745 91.3132 75.2755 91.5574C75.7765 91.8016 76.1493 92.1011 76.394 92.4557C76.6387 92.8104 76.761 93.2407 76.761 93.7466C76.761 94.1594 76.6736 94.5373 76.4989 94.8804C76.3299 95.2234 76.0823 95.52 75.7561 95.77C75.4357 96.0142 75.0512 96.2061 74.6027 96.3456C74.1599 96.4793 73.6619 96.5462 73.1084 96.5462C72.2754 96.5462 71.5705 96.3979 70.9938 96.1014C70.4171 95.8049 69.9802 95.4211 69.6831 94.9501C69.386 94.4792 69.2374 93.982 69.2374 93.4587H70.8627C70.886 93.9006 71.0142 94.2524 71.2472 94.5141C71.4802 94.7699 71.7657 94.953 72.1035 95.0635C72.4414 95.1682 72.7764 95.2205 73.1084 95.2205C73.5512 95.2205 73.9211 95.1624 74.2182 95.0461C74.5211 94.9298 74.7512 94.7699 74.9085 94.5664C75.0658 94.3629 75.1444 94.1303 75.1444 93.8687Z" fill="white"/>
<path d="M87.0462 91.758V91.5574C87.0462 90.8771 87.1452 90.2462 87.3433 89.6648C87.5414 89.0775 87.8268 88.5688 88.1997 88.1385C88.5725 87.7024 89.024 87.3652 89.5541 87.1268C90.0842 86.8826 90.6784 86.7605 91.3367 86.7605C92.0008 86.7605 92.5979 86.8826 93.128 87.1268C93.6639 87.3652 94.1183 87.7024 94.4912 88.1385C94.8698 88.5688 95.1582 89.0775 95.3562 89.6648C95.5543 90.2462 95.6533 90.8771 95.6533 91.5574V91.758C95.6533 92.4383 95.5543 93.0692 95.3562 93.6506C95.1582 94.2321 94.8698 94.7408 94.4912 95.1769C94.1183 95.6072 93.6669 95.9444 93.1367 96.1886C92.6124 96.427 92.0183 96.5462 91.3541 96.5462C90.69 96.5462 90.0929 96.427 89.5628 96.1886C89.0327 95.9444 88.5783 95.6072 88.1997 95.1769C87.8268 94.7408 87.5414 94.2321 87.3433 93.6506C87.1452 93.0692 87.0462 92.4383 87.0462 91.758ZM88.6628 91.5574V91.758C88.6628 92.229 88.7181 92.6738 88.8288 93.0924C88.9395 93.5052 89.1055 93.8716 89.3269 94.1914C89.5541 94.5111 89.8366 94.7641 90.1745 94.9501C90.5124 95.1304 90.9056 95.2205 91.3541 95.2205C91.7969 95.2205 92.1843 95.1304 92.5163 94.9501C92.8542 94.7641 93.1338 94.5111 93.3552 94.1914C93.5766 93.8716 93.7426 93.5052 93.8533 93.0924C93.9698 92.6738 94.028 92.229 94.028 91.758V91.5574C94.028 91.0922 93.9698 90.6533 93.8533 90.2404C93.7426 89.8218 93.5737 89.4526 93.3465 89.1328C93.1251 88.8072 92.8455 88.5513 92.5076 88.3653C92.1755 88.1792 91.7852 88.0862 91.3367 88.0862C90.8939 88.0862 90.5036 88.1792 90.1658 88.3653C89.8337 88.5513 89.5541 88.8072 89.3269 89.1328C89.1055 89.4526 88.9395 89.8218 88.8288 90.2404C88.7181 90.6533 88.6628 91.0922 88.6628 91.5574Z" fill="white"/>
<path d="M108.027 82.9753V96.3718H106.402V82.9753H108.027Z" fill="white"/>
<path d="M124.997 94.1914V86.9349H126.622V96.3718H125.076L124.997 94.1914ZM125.303 92.2028L125.976 92.1854C125.976 92.8133 125.909 93.3948 125.775 93.9297C125.646 94.4588 125.437 94.9182 125.145 95.3077C124.854 95.6973 124.473 96.0026 124.001 96.2235C123.529 96.4386 122.955 96.5462 122.279 96.5462C121.819 96.5462 121.397 96.4793 121.012 96.3456C120.634 96.2119 120.307 96.0055 120.034 95.7264C119.76 95.4473 119.547 95.0839 119.396 94.6362C119.25 94.1884 119.177 93.6506 119.177 93.0227V86.9349H120.794V93.0401C120.794 93.4645 120.84 93.8163 120.934 94.0954C121.033 94.3687 121.164 94.5867 121.327 94.7495C121.496 94.9065 121.682 95.017 121.886 95.081C122.096 95.1449 122.311 95.1769 122.533 95.1769C123.22 95.1769 123.765 95.0461 124.167 94.7844C124.569 94.517 124.857 94.1594 125.032 93.7117C125.212 93.2581 125.303 92.7552 125.303 92.2028Z" fill="white"/>
<path d="M141.635 86.9349V88.1734H136.523V86.9349H141.635ZM138.253 84.6411H139.87V94.0344C139.87 94.3542 139.919 94.5955 140.018 94.7583C140.117 94.9211 140.245 95.0286 140.403 95.081C140.56 95.1333 140.729 95.1595 140.91 95.1595C141.044 95.1595 141.183 95.1478 141.329 95.1246C141.48 95.0955 141.594 95.0722 141.67 95.0548L141.678 96.3718C141.55 96.4125 141.381 96.4503 141.172 96.4852C140.968 96.5259 140.72 96.5462 140.429 96.5462C140.033 96.5462 139.669 96.4677 139.337 96.3107C139.005 96.1537 138.74 95.8921 138.541 95.5258C138.349 95.1536 138.253 94.6536 138.253 94.0256V84.6411Z" fill="white"/>
<path d="M153.877 86.9349V96.3718H152.252V86.9349H153.877ZM152.13 84.4318C152.13 84.1701 152.208 83.9492 152.366 83.7689C152.529 83.5887 152.768 83.4986 153.082 83.4986C153.391 83.4986 153.627 83.5887 153.79 83.7689C153.959 83.9492 154.043 84.1701 154.043 84.4318C154.043 84.6818 153.959 84.8969 153.79 85.0772C153.627 85.2516 153.391 85.3388 153.082 85.3388C152.768 85.3388 152.529 85.2516 152.366 85.0772C152.208 84.8969 152.13 84.6818 152.13 84.4318Z" fill="white"/>
<path d="M164.634 91.758V91.5574C164.634 90.8771 164.733 90.2462 164.932 89.6648C165.13 89.0775 165.415 88.5688 165.788 88.1385C166.161 87.7024 166.612 87.3652 167.142 87.1268C167.672 86.8826 168.267 86.7605 168.925 86.7605C169.589 86.7605 170.186 86.8826 170.716 87.1268C171.252 87.3652 171.707 87.7024 172.079 88.1385C172.458 88.5688 172.746 89.0775 172.944 89.6648C173.143 90.2462 173.242 90.8771 173.242 91.5574V91.758C173.242 92.4383 173.143 93.0692 172.944 93.6506C172.746 94.2321 172.458 94.7408 172.079 95.1769C171.707 95.6072 171.255 95.9444 170.725 96.1886C170.201 96.427 169.606 96.5462 168.942 96.5462C168.278 96.5462 167.681 96.427 167.151 96.1886C166.621 95.9444 166.167 95.6072 165.788 95.1769C165.415 94.7408 165.13 94.2321 164.932 93.6506C164.733 93.0692 164.634 92.4383 164.634 91.758ZM166.251 91.5574V91.758C166.251 92.229 166.306 92.6738 166.417 93.0924C166.528 93.5052 166.694 93.8716 166.915 94.1914C167.142 94.5111 167.425 94.7641 167.763 94.9501C168.101 95.1304 168.494 95.2205 168.942 95.2205C169.385 95.2205 169.773 95.1304 170.105 94.9501C170.442 94.7641 170.722 94.5111 170.943 94.1914C171.165 93.8716 171.331 93.5052 171.442 93.0924C171.558 92.6738 171.616 92.229 171.616 91.758V91.5574C171.616 91.0922 171.558 90.6533 171.442 90.2404C171.331 89.8218 171.162 89.4526 170.935 89.1328C170.713 88.8072 170.434 88.5513 170.096 88.3653C169.764 88.1792 169.373 88.0862 168.925 88.0862C168.482 88.0862 168.092 88.1792 167.754 88.3653C167.422 88.5513 167.142 88.8072 166.915 89.1328C166.694 89.4526 166.528 89.8218 166.417 90.2404C166.306 90.6533 166.251 91.0922 166.251 91.5574Z" fill="white"/>
<path d="M185.475 88.9496V96.3718H183.859V86.9349H185.388L185.475 88.9496ZM185.091 91.2958L184.418 91.2696C184.424 90.6242 184.52 90.0282 184.706 89.4816C184.893 88.9293 185.155 88.4496 185.493 88.0426C185.831 87.6356 186.233 87.3216 186.699 87.1006C187.171 86.8739 187.692 86.7605 188.263 86.7605C188.729 86.7605 189.148 86.8244 189.521 86.9524C189.894 87.0745 190.212 87.2722 190.474 87.5454C190.742 87.8187 190.946 88.1734 191.085 88.6095C191.225 89.0397 191.295 89.566 191.295 90.1881V96.3718H189.67V90.1707C189.67 89.6764 189.597 89.281 189.451 88.9845C189.306 88.6822 189.093 88.4641 188.813 88.3304C188.534 88.1908 188.19 88.1211 187.782 88.1211C187.38 88.1211 187.013 88.2054 186.681 88.374C186.355 88.5426 186.073 88.7752 185.834 89.0717C185.601 89.3683 185.417 89.7084 185.283 90.0922C185.155 90.4701 185.091 90.8713 185.091 91.2958Z" fill="white"/>
<path d="M216.986 88.749V100H215.361V86.9349H216.846L216.986 88.749ZM223.356 91.5749V91.758C223.356 92.4441 223.275 93.0808 223.112 93.6681C222.948 94.2495 222.71 94.7554 222.395 95.1856C222.086 95.6159 221.705 95.9502 221.25 96.1886C220.796 96.427 220.275 96.5462 219.686 96.5462C219.086 96.5462 218.556 96.4474 218.096 96.2497C217.636 96.052 217.245 95.7642 216.925 95.3862C216.604 95.0083 216.348 94.5548 216.156 94.0256C215.97 93.4965 215.841 92.9005 215.771 92.2377V91.2609C215.841 90.5631 215.972 89.9381 216.165 89.3857C216.357 88.8333 216.61 88.3624 216.925 87.9728C217.245 87.5774 217.633 87.278 218.087 87.0745C218.541 86.8651 219.066 86.7605 219.66 86.7605C220.254 86.7605 220.781 86.8768 221.242 87.1093C221.702 87.3361 222.089 87.6617 222.404 88.0862C222.718 88.5106 222.954 89.0194 223.112 89.6125C223.275 90.1997 223.356 90.8539 223.356 91.5749ZM221.731 91.758V91.5749C221.731 91.1039 221.681 90.662 221.582 90.2492C221.483 89.8305 221.329 89.4642 221.119 89.1502C220.915 88.8304 220.653 88.5804 220.333 88.4002C220.012 88.2141 219.631 88.1211 219.188 88.1211C218.78 88.1211 218.425 88.1908 218.122 88.3304C217.825 88.4699 217.572 88.6589 217.362 88.8973C217.152 89.1299 216.98 89.3973 216.846 89.6997C216.718 89.9962 216.622 90.3044 216.558 90.6242V92.8831C216.674 93.2901 216.838 93.6739 217.047 94.0344C217.257 94.389 217.537 94.6769 217.886 94.8978C218.236 95.1129 218.675 95.2205 219.206 95.2205C219.642 95.2205 220.018 95.1304 220.333 94.9501C220.653 94.7641 220.915 94.5111 221.119 94.1914C221.329 93.8716 221.483 93.5052 221.582 93.0924C221.681 92.6738 221.731 92.229 221.731 91.758Z" fill="white"/>
<path d="M239.583 94.7583V89.9003C239.583 89.5282 239.508 89.2055 239.356 88.9322C239.211 88.6531 238.989 88.438 238.692 88.2868C238.395 88.1356 238.028 88.06 237.591 88.06C237.183 88.06 236.825 88.1298 236.516 88.2693C236.213 88.4089 235.975 88.592 235.8 88.8188C235.631 89.0456 235.546 89.2898 235.546 89.5514H233.93C233.93 89.2142 234.017 88.8799 234.192 88.5484C234.367 88.217 234.617 87.9176 234.943 87.6501C235.275 87.3768 235.672 87.1617 236.132 87.0047C236.598 86.8419 237.116 86.7605 237.687 86.7605C238.375 86.7605 238.98 86.8768 239.505 87.1093C240.035 87.3419 240.448 87.6937 240.746 88.1647C241.048 88.6298 241.2 89.2142 241.2 89.9177V94.3135C241.2 94.6274 241.226 94.9618 241.279 95.3165C241.337 95.6711 241.421 95.9764 241.532 96.2322V96.3718H239.846C239.764 96.1857 239.7 95.9386 239.653 95.6304C239.607 95.3165 239.583 95.0257 239.583 94.7583ZM239.863 90.6504L239.88 91.7842H238.246C237.786 91.7842 237.376 91.822 237.014 91.8976C236.653 91.9673 236.35 92.0749 236.106 92.2203C235.861 92.3656 235.674 92.5488 235.546 92.7697C235.418 92.9849 235.354 93.2378 235.354 93.5285C235.354 93.825 235.421 94.0954 235.555 94.3396C235.689 94.5838 235.89 94.7786 236.158 94.924C236.432 95.0635 236.767 95.1333 237.163 95.1333C237.658 95.1333 238.095 95.0286 238.474 94.8193C238.852 94.61 239.152 94.3542 239.374 94.0518C239.601 93.7495 239.723 93.4558 239.741 93.1709L240.431 93.9472C240.39 94.1914 240.28 94.4617 240.099 94.7583C239.918 95.0548 239.677 95.3397 239.374 95.613C239.077 95.8805 238.721 96.1043 238.308 96.2846C237.9 96.459 237.44 96.5462 236.927 96.5462C236.286 96.5462 235.724 96.4212 235.24 96.1712C234.763 95.9212 234.39 95.5868 234.122 95.1682C233.86 94.7437 233.729 94.2699 233.729 93.7466C233.729 93.2407 233.828 92.7959 234.026 92.4121C234.224 92.0226 234.509 91.6999 234.882 91.444C235.255 91.1824 235.704 90.9847 236.228 90.851C236.752 90.7172 237.338 90.6504 237.984 90.6504H239.863Z" fill="white"/>
<path d="M253.949 88.4176V96.3718H252.333V86.9349H253.906L253.949 88.4176ZM256.903 86.8826L256.894 88.3827C256.76 88.3536 256.632 88.3362 256.51 88.3304C256.393 88.3188 256.259 88.3129 256.108 88.3129C255.735 88.3129 255.406 88.3711 255.12 88.4874C254.835 88.6037 254.593 88.7665 254.395 88.9758C254.197 89.1851 254.04 89.4351 253.923 89.7259C253.812 90.0108 253.74 90.3247 253.705 90.6678L253.25 90.9294C253.25 90.3596 253.306 89.8247 253.416 89.3247C253.533 88.8246 253.71 88.3827 253.949 87.999C254.188 87.6094 254.491 87.307 254.858 87.0919C255.231 86.871 255.674 86.7605 256.186 86.7605C256.303 86.7605 256.437 86.775 256.588 86.8041C256.74 86.8273 256.845 86.8535 256.903 86.8826Z" fill="white"/>
<path d="M271.382 86.9349V88.1734H266.271V86.9349H271.382ZM268.001 84.6411H269.617V94.0344C269.617 94.3542 269.667 94.5955 269.766 94.7583C269.865 94.9211 269.993 95.0286 270.15 95.081C270.308 95.1333 270.477 95.1595 270.657 95.1595C270.791 95.1595 270.931 95.1478 271.077 95.1246C271.228 95.0955 271.342 95.0722 271.417 95.0548L271.426 96.3718C271.298 96.4125 271.129 96.4503 270.919 96.4852C270.715 96.5259 270.468 96.5462 270.177 96.5462C269.78 96.5462 269.416 96.4677 269.084 96.3107C268.752 96.1537 268.487 95.8921 268.289 95.5258C268.097 95.1536 268.001 94.6536 268.001 94.0256V84.6411Z" fill="white"/>
<path d="M283.485 88.9496V96.3718H281.869V86.9349H283.398L283.485 88.9496ZM283.101 91.2958L282.428 91.2696C282.434 90.6242 282.53 90.0282 282.716 89.4816C282.903 88.9293 283.165 88.4496 283.503 88.0426C283.841 87.6356 284.242 87.3216 284.709 87.1006C285.18 86.8739 285.702 86.7605 286.273 86.7605C286.739 86.7605 287.158 86.8244 287.531 86.9524C287.904 87.0745 288.221 87.2722 288.483 87.5454C288.751 87.8187 288.955 88.1734 289.095 88.6095C289.235 89.0397 289.305 89.566 289.305 90.1881V96.3718H287.68V90.1707C287.68 89.6764 287.607 89.281 287.461 88.9845C287.315 88.6822 287.103 88.4641 286.823 88.3304C286.544 88.1908 286.2 88.1211 285.792 88.1211C285.39 88.1211 285.023 88.2054 284.691 88.374C284.365 88.5426 284.082 88.7752 283.843 89.0717C283.61 89.3683 283.427 89.7084 283.293 90.0922C283.165 90.4701 283.101 90.8713 283.101 91.2958Z" fill="white"/>
<path d="M304.274 96.5462C303.615 96.5462 303.018 96.4357 302.482 96.2148C301.952 95.988 301.495 95.6711 301.11 95.2641C300.732 94.8571 300.441 94.3745 300.237 93.8163C300.033 93.2581 299.931 92.6476 299.931 91.9848V91.6185C299.931 90.851 300.044 90.1677 300.272 89.5689C300.499 88.9642 300.808 88.4525 301.198 88.0338C301.588 87.6152 302.031 87.2983 302.526 87.0832C303.021 86.868 303.534 86.7605 304.064 86.7605C304.74 86.7605 305.322 86.8768 305.812 87.1093C306.307 87.3419 306.712 87.6675 307.026 88.0862C307.341 88.499 307.574 88.9874 307.725 89.5514C307.877 90.1096 307.952 90.7201 307.952 91.383V92.1069H300.892V90.7899H306.336V90.6678C306.313 90.2492 306.225 89.8421 306.074 89.4468C305.928 89.0514 305.695 88.7258 305.375 88.4699C305.054 88.2141 304.617 88.0862 304.064 88.0862C303.697 88.0862 303.359 88.1647 303.05 88.3217C302.742 88.4728 302.477 88.6996 302.255 89.002C302.034 89.3043 301.862 89.6735 301.74 90.1096C301.617 90.5457 301.556 91.0486 301.556 91.6185V91.9848C301.556 92.4325 301.617 92.854 301.74 93.2494C301.868 93.639 302.051 93.982 302.29 94.2786C302.535 94.5751 302.829 94.8077 303.173 94.9763C303.522 95.1449 303.918 95.2292 304.361 95.2292C304.932 95.2292 305.415 95.1129 305.812 94.8804C306.208 94.6478 306.554 94.3367 306.851 93.9472L307.83 94.7234C307.626 95.0315 307.367 95.3252 307.052 95.6043C306.738 95.8834 306.35 96.1101 305.89 96.2846C305.436 96.459 304.897 96.5462 304.274 96.5462Z" fill="white"/>
<path d="M320.046 88.4176V96.3718H318.43V86.9349H320.003L320.046 88.4176ZM323 86.8826L322.991 88.3827C322.857 88.3536 322.729 88.3362 322.607 88.3304C322.49 88.3188 322.356 88.3129 322.205 88.3129C321.832 88.3129 321.503 88.3711 321.217 88.4874C320.932 88.6037 320.69 88.7665 320.492 88.9758C320.294 89.1851 320.137 89.4351 320.02 89.7259C319.91 90.0108 319.837 90.3247 319.802 90.6678L319.347 90.9294C319.347 90.3596 319.403 89.8247 319.513 89.3247C319.63 88.8246 319.808 88.3827 320.046 87.999C320.285 87.6094 320.588 87.307 320.955 87.0919C321.328 86.871 321.771 86.7605 322.283 86.7605C322.4 86.7605 322.534 86.775 322.685 86.8041C322.837 86.8273 322.942 86.8535 323 86.8826Z" fill="white"/>
</svg>
